<mxfile host="app.diagrams.net" modified="2023-06-16T08:09:54.613Z" agent="Mozilla/5.0 (Windows NT 10.0; Win64; x64) AppleWebKit/537.36 (KHTML, like Gecko) Chrome/114.0.0.0 Safari/537.36 Edg/114.0.1823.43" version="21.3.8" etag="6NDwlO9DDRF5wE7d5dih" type="github">
  <diagram name="第 1 页" id="PfSyWoBBg24kj4uT59He">
    <mxGraphModel>
      <root>
        <mxCell id="0" />
        <mxCell id="1" parent="0" />
      </root>
    </mxGraphModel>
  </diagram>
</mxfile>
